<?xml version="1.0" encoding="utf-8"?>
<!-- Generator: Adobe Illustrator 24.1.0, SVG Export Plug-In . SVG Version: 6.00 Build 0)  -->
<svg version="1.1" id="Capa_1" xmlns="http://www.w3.org/2000/svg" xmlns:xlink="http://www.w3.org/1999/xlink" x="0px" y="0px"
	 viewBox="0 0 1417.32 1417.32" style="enable-background:new 0 0 1417.32 1417.32;" xml:space="preserve">
<style type="text/css">
	.st0{fill:#4400FF;}
	.st1{fill:#FFFFFF;}
	.st2{fill:#020202;}
</style>
<path class="st0" d="M969.19,829.56H643.63c-37.11,0-67.19-30.08-67.19-67.19V559.25c0-37.11,30.08-67.19,67.19-67.19h325.56
	c37.11,0,67.19,30.08,67.19,67.19v203.13C1036.38,799.48,1006.29,829.56,969.19,829.56z"/>
<g>
	<g>
		<path class="st1" d="M646.25,574.21h-33.79v-18.34h87.11v18.34h-33.49v190.07h-19.83V574.21z"/>
		<path class="st1" d="M791.34,722.38c0,19.81,0,34.59,0.31,41.91h-18.88c-0.42-2.83-0.84-10.92-0.84-16.79
			c-4.72,14.44-14.45,19.29-28.16,19.29c-12.58,0-30.63-4.58-30.63-40.21V606.08h19.83v115.27c0,19.77,5.27,27.33,17.54,27.33
			c11.3,0,21-6.75,21-39.27V606.08h19.83V722.38z"/>
		<path class="st1" d="M821.29,546.62h19.83v74.28c4.21-9.89,12.89-17.32,28.3-17.32c22.52,0,31.9,18.36,31.9,45.38v62.55
			c0,31.41-6.84,54.87-35.35,54.87c-14.7,0-22.57-7.4-26.23-17.54c-0.11,6.53-0.22,10.59-0.85,15.45h-17.92
			c0.42-8.52,0.31-22.67,0.31-42.1V546.62z M881.29,714.83v-62.88c0-18.99-4.69-30.07-18.34-30.07c-19.2,0-22.03,18.7-22.03,41.41
			v47.66c0,25.49,6.07,37.12,21.09,37.12C874.69,748.08,881.29,737.66,881.29,714.83z"/>
		<path class="st1" d="M941.36,688.81v26.51c0,16.58,3.21,34.22,19.68,34.22c15.59,0,18.66-12.44,18.66-28.49v-1.43h19.5v1.23
			c0,18.75-4.44,45.93-38.23,45.93c-31.28,0-39.11-20.88-39.11-53.03v-60.64c0-24.55,8.77-49.53,39.6-49.53
			c29.72,0,38.15,22.59,38.15,49.62c0,8.46,0,26.65,0,35.61H941.36z M980.34,672.35v-20.64c0-14.77-2.13-30.89-19.08-30.89
			c-16.1,0-19.79,13.59-19.79,31.09v20.44H980.34z"/>
	</g>
</g>
<g>
	<g>
		<path class="st2" d="M315.81,555.87h36.21c45.2,0,49.71,28.98,49.71,60.77v82.87c0,32.03-4.81,64.77-51.41,64.77h-34.51V555.87z
			 M335.64,746.94h13.1c26.21,0,32.74-14.42,32.74-43.06v-89.94c0-25.24-4.53-40.61-32.45-40.61h-13.39V746.94z"/>
		<path class="st2" d="M436.86,606.08c12.18,81.81,16.16,110.16,17.81,131.08h0.31c2.28-20.77,6.59-45.68,21.41-131.08h20.34
			c14.23,86.37,18.73,110.82,20.49,130.79h0.31c1.56-17.56,4-37.58,18.32-130.79h20.03l-28.38,158.21h-21.29
			c-8.79-53.79-17.39-101.95-20.29-126.67h-0.31c-1.87,23.45-10.08,65.94-21.23,126.67h-21.51l-27.02-158.21H436.86z"/>
	</g>
</g>
</svg>
