<?xml version="1.0" encoding="utf-8"?>
<!-- Generator: Adobe Illustrator 24.1.0, SVG Export Plug-In . SVG Version: 6.00 Build 0)  -->
<svg version="1.1" id="Capa_1" xmlns="http://www.w3.org/2000/svg" xmlns:xlink="http://www.w3.org/1999/xlink" x="0px" y="0px"
	 viewBox="0 0 1417.32 1417.32" style="enable-background:new 0 0 1417.32 1417.32;" xml:space="preserve">
<style type="text/css">
	.st0{fill:none;}
	.st1{fill:#11828E;}
	.st2{fill:#A0D8D6;}
	.st3{fill:#02514F;}
</style>
<g>
	<rect x="177" y="552.88" class="st0" width="1648.44" height="720.31"/>
	<path class="st1" d="M223.25,677.37l-17.5,53h-22.5l57.25-168.5h26.25l57.5,168.5H301l-18-53H223.25z M278.5,660.37l-16.5-48.5
		c-3.75-11-6.25-21-8.75-30.75h-0.5c-2.5,10-5.25,20.25-8.5,30.5l-16.5,48.75H278.5z"/>
	<path class="st1" d="M347.5,648.87c0-15.5-0.5-28-1-39.5h19.75l1,20.75h0.5c9-14.75,23.25-23.5,43-23.5
		c29.25,0,51.25,24.75,51.25,61.5c0,43.5-26.5,65-55,65c-16,0-30-7-37.25-19h-0.5v65.75H347.5V648.87z M369.25,681.12
		c0,3.25,0.5,6.25,1,9c4,15.25,17.25,25.75,33,25.75c23.25,0,36.75-19,36.75-46.75c0-24.25-12.75-45-36-45
		c-15,0-29,10.75-33.25,27.25c-0.75,2.75-1.5,6-1.5,9V681.12z"/>
	<path class="st1" d="M489.75,648.87c0-15.5-0.5-28-1-39.5h19.75l1,20.75h0.5c9-14.75,23.25-23.5,43-23.5
		c29.25,0,51.25,24.75,51.25,61.5c0,43.5-26.5,65-55,65c-16,0-30-7-37.25-19h-0.5v65.75h-21.75V648.87z M511.5,681.12
		c0,3.25,0.5,6.25,1,9c4,15.25,17.25,25.75,33,25.75c23.25,0,36.75-19,36.75-46.75c0-24.25-12.75-45-36-45
		c-15,0-29,10.75-33.25,27.25c-0.75,2.75-1.5,6-1.5,9V681.12z"/>
	<path class="st2" d="M654.75,580.37H603.5v-18.5h124.75v18.5h-51.5v150h-22V580.37z"/>
	<path class="st2" d="M740.74,673.87c0.5,29.75,19.5,42,41.5,42c15.75,0,25.25-2.75,33.5-6.25l3.75,15.75
		c-7.75,3.5-21,7.5-40.25,7.5c-37.25,0-59.5-24.5-59.5-61s21.5-65.25,56.75-65.25c39.5,0,50,34.75,50,57c0,4.5-0.5,8-0.75,10.25
		H740.74z M805.24,658.12c0.25-14-5.75-35.75-30.5-35.75c-22.25,0-32,20.5-33.75,35.75H805.24z"/>
	<path class="st2" d="M939.99,725.87c-5.75,3-18.5,7-34.75,7c-36.5,0-60.25-24.75-60.25-61.75c0-37.25,25.5-64.25,65-64.25
		c13,0,24.5,3.25,30.5,6.25l-5,17c-5.25-3-13.5-5.75-25.5-5.75c-27.75,0-42.75,20.5-42.75,45.75c0,28,18,45.25,42,45.25
		c12.5,0,20.75-3.25,27-6L939.99,725.87z"/>
	<path class="st2" d="M965.74,552.87h22v75.5h0.5c3.5-6.25,9-11.75,15.75-15.5c6.5-3.75,14.25-6.25,22.5-6.25
		c16.25,0,42.25,10,42.25,51.75v72h-22v-69.5c0-19.5-7.25-36-28-36c-14.25,0-25.5,10-29.5,22c-1.25,3-1.5,6.25-1.5,10.5v73h-22
		V552.87z"/>
</g>
<g>
	<path class="st3" d="M1173.78,795.43c-51.5-43.64-77.25-99.01-77.25-166.11c0-67.56,25.75-123.16,77.25-166.8l7.35,6.49
		c-36.35,40.45-54.52,93.65-54.52,159.62c0,66.42,18.17,119.86,54.52,160.3L1173.78,795.43z"/>
	<path class="st3" d="M1222.65,462.52c51.5,43.64,77.25,99.01,77.25,166.11c0,67.56-25.75,123.16-77.25,166.8l-7.35-6.49
		c36.34-40.45,54.52-93.65,54.52-159.62c0-66.42-18.17-119.86-54.52-160.3L1222.65,462.52z"/>
</g>
<g>
</g>
<g>
</g>
<g>
</g>
<g>
</g>
<g>
</g>
</svg>
